<svg xmlns="http://www.w3.org/2000/svg" viewBox="0 0 24 24">
  <defs>
    <linearGradient id="cloverGrad" x1="0%" y1="0%" x2="100%" y2="100%">
      <stop offset="0%" style="stop-color:#4ADE80"/>
      <stop offset="100%" style="stop-color:#22C55E"/>
    </linearGradient>
  </defs>
  <path fill="url(#cloverGrad)" d="M12 2c-1.66 0-3 1.34-3 3 0 1.12.61 2.1 1.52 2.62-.5.3-.91.71-1.21 1.21C8.79 8.39 7.81 8 6.8 8c-1.93 0-3.5 1.57-3.5 3.5S4.87 15 6.8 15c1.01 0 1.99-.39 2.51-.83.3.5.71.91 1.21 1.21C9.61 15.9 9 16.88 9 18c0 1.66 1.34 3 3 3s3-1.34 3-3c0-1.12-.61-2.1-1.52-2.62.5-.3.91-.71 1.21-1.21.52.44 1.5.83 2.51.83 1.93 0 3.5-1.57 3.5-3.5S19.13 8 17.2 8c-1.01 0-1.99.39-2.51.83-.3-.5-.71-.91-1.21-1.21C14.39 7.1 15 6.12 15 5c0-1.66-1.34-3-3-3zm0 2c.55 0 1 .45 1 1s-.45 1-1 1-1-.45-1-1 .45-1 1-1zm-5.2 5c.83 0 1.5.67 1.5 1.5s-.67 1.5-1.5 1.5-1.5-.67-1.5-1.5.67-1.5 1.5-1.5zm10.4 0c.83 0 1.5.67 1.5 1.5s-.67 1.5-1.5 1.5-1.5-.67-1.5-1.5.67-1.5 1.5-1.5zM12 17c.55 0 1 .45 1 1s-.45 1-1 1-1-.45-1-1 .45-1 1-1z"/>
</svg>
