<svg width="64" height="64" viewBox="0 0 64 64" fill="none" xmlns="http://www.w3.org/2000/svg">
  <!-- The Archway -->
  <path d="M32 6C17.6406 6 6 17.6406 6 32V58H58V32C58 17.6406 46.3594 6 32 6Z" stroke="currentColor" stroke-width="4" stroke-linecap="round" stroke-linejoin="round"/>
  <path d="M14 58V32C14 22.0589 22.0589 14 32 14C41.9411 14 50 22.0589 50 32V58" stroke="currentColor" stroke-width="2" stroke-opacity="0.5" stroke-linecap="round" stroke-linejoin="round"/>

  <!-- The Portal Vortex (Spiral) -->
  <path d="M32 24C27.5817 24 24 27.5817 24 32C24 36.4183 27.5817 40 32 40C36.4183 40 40 36.4183 40 32C40 29.5 39 27 37 25.5" stroke="currentColor" stroke-width="3" stroke-linecap="round"/>
  <path d="M32 29C30.3431 29 29 30.3431 29 32C29 33.6569 30.3431 35 32 35C33.6569 35 35 33.6569 35 32" stroke="currentColor" stroke-width="3" stroke-linecap="round"/>

  <!-- Magic Sparkles -->
  <path d="M52 10L53.5 13L56.5 13.5L54 15.5L54.5 18.5L52 17L49.5 18.5L50 15.5L47.5 13.5L50.5 13L52 10Z" fill="currentColor"/>
  <path d="M10 42L11 44L13 44.5L11.5 45.5L12 47.5L10 46.5L8 47.5L8.5 45.5L7 44.5L9 44L10 42Z" fill="currentColor"/>
</svg>
